<mxfile host="app.diagrams.net" modified="2022-04-28T15:20:09.728Z" agent="5.0 (Windows NT 10.0; Win64; x64) AppleWebKit/537.36 (KHTML, like Gecko) Chrome/100.0.4896.127 Safari/537.36" etag="xlo0raiV-qncEhf5QzAf" version="17.4.6" type="github">
  <diagram id="C5RBs43oDa-KdzZeNtuy" name="Page-1">
    <mxGraphModel dx="1422" dy="1113" grid="0" gridSize="10" guides="1" tooltips="1" connect="1" arrows="1" fold="1" page="0" pageScale="1" pageWidth="827" pageHeight="1169" math="0" shadow="0">
      <root>
        <mxCell id="WIyWlLk6GJQsqaUBKTNV-0" />
        <mxCell id="WIyWlLk6GJQsqaUBKTNV-1" parent="WIyWlLk6GJQsqaUBKTNV-0" />
        <mxCell id="yi2jWMJPNJtkqTyVK9UL-2" style="edgeStyle=orthogonalEdgeStyle;rounded=0;orthogonalLoop=1;jettySize=auto;html=1;exitX=1;exitY=0.5;exitDx=0;exitDy=0;entryX=0;entryY=0.5;entryDx=0;entryDy=0;" edge="1" parent="WIyWlLk6GJQsqaUBKTNV-1" source="yi2jWMJPNJtkqTyVK9UL-0" target="yi2jWMJPNJtkqTyVK9UL-3">
          <mxGeometry relative="1" as="geometry">
            <mxPoint x="240" y="130" as="targetPoint" />
          </mxGeometry>
        </mxCell>
        <mxCell id="yi2jWMJPNJtkqTyVK9UL-11" value="" style="edgeStyle=orthogonalEdgeStyle;rounded=0;orthogonalLoop=1;jettySize=auto;html=1;entryX=0;entryY=0.5;entryDx=0;entryDy=0;" edge="1" parent="WIyWlLk6GJQsqaUBKTNV-1" source="yi2jWMJPNJtkqTyVK9UL-0" target="yi2jWMJPNJtkqTyVK9UL-12">
          <mxGeometry relative="1" as="geometry">
            <mxPoint x="260" y="300" as="targetPoint" />
          </mxGeometry>
        </mxCell>
        <mxCell id="yi2jWMJPNJtkqTyVK9UL-18" style="edgeStyle=orthogonalEdgeStyle;rounded=0;orthogonalLoop=1;jettySize=auto;html=1;exitX=1;exitY=0.5;exitDx=0;exitDy=0;entryX=0;entryY=0.5;entryDx=0;entryDy=0;" edge="1" parent="WIyWlLk6GJQsqaUBKTNV-1" source="yi2jWMJPNJtkqTyVK9UL-0" target="yi2jWMJPNJtkqTyVK9UL-17">
          <mxGeometry relative="1" as="geometry" />
        </mxCell>
        <mxCell id="yi2jWMJPNJtkqTyVK9UL-22" style="edgeStyle=orthogonalEdgeStyle;rounded=0;orthogonalLoop=1;jettySize=auto;html=1;exitX=1;exitY=0.5;exitDx=0;exitDy=0;" edge="1" parent="WIyWlLk6GJQsqaUBKTNV-1">
          <mxGeometry relative="1" as="geometry">
            <mxPoint x="185" y="300" as="sourcePoint" />
            <mxPoint x="270" y="500" as="targetPoint" />
            <Array as="points">
              <mxPoint x="225" y="300" />
              <mxPoint x="225" y="500" />
            </Array>
          </mxGeometry>
        </mxCell>
        <mxCell id="yi2jWMJPNJtkqTyVK9UL-0" value="首页" style="rounded=1;whiteSpace=wrap;html=1;" vertex="1" parent="WIyWlLk6GJQsqaUBKTNV-1">
          <mxGeometry x="60" y="270" width="120" height="60" as="geometry" />
        </mxCell>
        <mxCell id="yi2jWMJPNJtkqTyVK9UL-5" value="" style="edgeStyle=orthogonalEdgeStyle;rounded=0;orthogonalLoop=1;jettySize=auto;html=1;" edge="1" parent="WIyWlLk6GJQsqaUBKTNV-1" source="yi2jWMJPNJtkqTyVK9UL-3" target="yi2jWMJPNJtkqTyVK9UL-4">
          <mxGeometry relative="1" as="geometry" />
        </mxCell>
        <mxCell id="yi2jWMJPNJtkqTyVK9UL-7" value="" style="edgeStyle=orthogonalEdgeStyle;rounded=0;orthogonalLoop=1;jettySize=auto;html=1;" edge="1" parent="WIyWlLk6GJQsqaUBKTNV-1" source="yi2jWMJPNJtkqTyVK9UL-3" target="yi2jWMJPNJtkqTyVK9UL-6">
          <mxGeometry relative="1" as="geometry">
            <Array as="points">
              <mxPoint x="335" y="-20" />
            </Array>
          </mxGeometry>
        </mxCell>
        <mxCell id="yi2jWMJPNJtkqTyVK9UL-3" value="音乐按钮" style="rhombus;whiteSpace=wrap;html=1;" vertex="1" parent="WIyWlLk6GJQsqaUBKTNV-1">
          <mxGeometry x="270" y="80" width="130" height="80" as="geometry" />
        </mxCell>
        <mxCell id="yi2jWMJPNJtkqTyVK9UL-4" value="音乐开启（默认）" style="whiteSpace=wrap;html=1;" vertex="1" parent="WIyWlLk6GJQsqaUBKTNV-1">
          <mxGeometry x="480" y="90" width="120" height="60" as="geometry" />
        </mxCell>
        <mxCell id="yi2jWMJPNJtkqTyVK9UL-6" value="音乐关闭" style="whiteSpace=wrap;html=1;" vertex="1" parent="WIyWlLk6GJQsqaUBKTNV-1">
          <mxGeometry x="480" y="-50" width="120" height="60" as="geometry" />
        </mxCell>
        <mxCell id="yi2jWMJPNJtkqTyVK9UL-8" value="关" style="text;html=1;align=center;verticalAlign=middle;resizable=0;points=[];autosize=1;strokeColor=none;fillColor=none;" vertex="1" parent="WIyWlLk6GJQsqaUBKTNV-1">
          <mxGeometry x="365" y="-20" width="30" height="20" as="geometry" />
        </mxCell>
        <mxCell id="yi2jWMJPNJtkqTyVK9UL-9" value="开" style="text;html=1;align=center;verticalAlign=middle;resizable=0;points=[];autosize=1;strokeColor=none;fillColor=none;" vertex="1" parent="WIyWlLk6GJQsqaUBKTNV-1">
          <mxGeometry x="425" y="100" width="30" height="20" as="geometry" />
        </mxCell>
        <mxCell id="yi2jWMJPNJtkqTyVK9UL-14" value="" style="edgeStyle=orthogonalEdgeStyle;rounded=0;orthogonalLoop=1;jettySize=auto;html=1;" edge="1" parent="WIyWlLk6GJQsqaUBKTNV-1" source="yi2jWMJPNJtkqTyVK9UL-12" target="yi2jWMJPNJtkqTyVK9UL-13">
          <mxGeometry relative="1" as="geometry" />
        </mxCell>
        <mxCell id="yi2jWMJPNJtkqTyVK9UL-12" value="排行榜" style="whiteSpace=wrap;html=1;" vertex="1" parent="WIyWlLk6GJQsqaUBKTNV-1">
          <mxGeometry x="270" y="220" width="120" height="60" as="geometry" />
        </mxCell>
        <mxCell id="yi2jWMJPNJtkqTyVK9UL-13" value="排行榜页面" style="whiteSpace=wrap;html=1;" vertex="1" parent="WIyWlLk6GJQsqaUBKTNV-1">
          <mxGeometry x="590" y="220" width="120" height="60" as="geometry" />
        </mxCell>
        <mxCell id="yi2jWMJPNJtkqTyVK9UL-16" value="调用排行榜接口&lt;br&gt;查询游戏比分排名前十的用户信息" style="text;html=1;align=center;verticalAlign=middle;resizable=0;points=[];autosize=1;strokeColor=none;fillColor=none;" vertex="1" parent="WIyWlLk6GJQsqaUBKTNV-1">
          <mxGeometry x="390" y="225" width="200" height="30" as="geometry" />
        </mxCell>
        <mxCell id="yi2jWMJPNJtkqTyVK9UL-20" value="" style="edgeStyle=orthogonalEdgeStyle;rounded=0;orthogonalLoop=1;jettySize=auto;html=1;" edge="1" parent="WIyWlLk6GJQsqaUBKTNV-1" source="yi2jWMJPNJtkqTyVK9UL-17" target="yi2jWMJPNJtkqTyVK9UL-19">
          <mxGeometry relative="1" as="geometry" />
        </mxCell>
        <mxCell id="yi2jWMJPNJtkqTyVK9UL-17" value="游戏规则" style="whiteSpace=wrap;html=1;" vertex="1" parent="WIyWlLk6GJQsqaUBKTNV-1">
          <mxGeometry x="270" y="330" width="120" height="60" as="geometry" />
        </mxCell>
        <mxCell id="yi2jWMJPNJtkqTyVK9UL-19" value="规则页面" style="whiteSpace=wrap;html=1;" vertex="1" parent="WIyWlLk6GJQsqaUBKTNV-1">
          <mxGeometry x="470" y="330" width="120" height="60" as="geometry" />
        </mxCell>
        <mxCell id="yi2jWMJPNJtkqTyVK9UL-24" value="" style="edgeStyle=orthogonalEdgeStyle;rounded=0;orthogonalLoop=1;jettySize=auto;html=1;" edge="1" parent="WIyWlLk6GJQsqaUBKTNV-1" source="yi2jWMJPNJtkqTyVK9UL-21" target="yi2jWMJPNJtkqTyVK9UL-23">
          <mxGeometry relative="1" as="geometry" />
        </mxCell>
        <mxCell id="yi2jWMJPNJtkqTyVK9UL-21" value="start（开始游戏）" style="whiteSpace=wrap;html=1;" vertex="1" parent="WIyWlLk6GJQsqaUBKTNV-1">
          <mxGeometry x="270" y="470" width="120" height="60" as="geometry" />
        </mxCell>
        <mxCell id="yi2jWMJPNJtkqTyVK9UL-27" value="" style="edgeStyle=orthogonalEdgeStyle;rounded=0;orthogonalLoop=1;jettySize=auto;html=1;" edge="1" parent="WIyWlLk6GJQsqaUBKTNV-1" source="yi2jWMJPNJtkqTyVK9UL-23" target="yi2jWMJPNJtkqTyVK9UL-26">
          <mxGeometry relative="1" as="geometry" />
        </mxCell>
        <mxCell id="yi2jWMJPNJtkqTyVK9UL-32" style="edgeStyle=orthogonalEdgeStyle;rounded=0;orthogonalLoop=1;jettySize=auto;html=1;exitX=0.5;exitY=1;exitDx=0;exitDy=0;entryX=0;entryY=0.5;entryDx=0;entryDy=0;" edge="1" parent="WIyWlLk6GJQsqaUBKTNV-1" source="yi2jWMJPNJtkqTyVK9UL-23" target="yi2jWMJPNJtkqTyVK9UL-29">
          <mxGeometry relative="1" as="geometry" />
        </mxCell>
        <mxCell id="yi2jWMJPNJtkqTyVK9UL-23" value="是否同意使用&lt;br&gt;手机摄像头权限" style="rhombus;whiteSpace=wrap;html=1;" vertex="1" parent="WIyWlLk6GJQsqaUBKTNV-1">
          <mxGeometry x="490" y="460" width="140" height="80" as="geometry" />
        </mxCell>
        <mxCell id="yi2jWMJPNJtkqTyVK9UL-25" value="调起手机授权" style="text;html=1;align=center;verticalAlign=middle;resizable=0;points=[];autosize=1;strokeColor=none;fillColor=none;" vertex="1" parent="WIyWlLk6GJQsqaUBKTNV-1">
          <mxGeometry x="395" y="480" width="90" height="20" as="geometry" />
        </mxCell>
        <mxCell id="yi2jWMJPNJtkqTyVK9UL-28" value="是" style="text;html=1;align=center;verticalAlign=middle;resizable=0;points=[];autosize=1;strokeColor=none;fillColor=none;" vertex="1" parent="WIyWlLk6GJQsqaUBKTNV-1">
          <mxGeometry x="648" y="480" width="30" height="20" as="geometry" />
        </mxCell>
        <mxCell id="yi2jWMJPNJtkqTyVK9UL-29" value="弹出系统弹框（请打开手机摄像头权限进行游戏）" style="whiteSpace=wrap;html=1;" vertex="1" parent="WIyWlLk6GJQsqaUBKTNV-1">
          <mxGeometry x="695" y="585" width="120" height="60" as="geometry" />
        </mxCell>
        <mxCell id="yi2jWMJPNJtkqTyVK9UL-26" value="打开手机摄像头，进入游戏页" style="whiteSpace=wrap;html=1;" vertex="1" parent="WIyWlLk6GJQsqaUBKTNV-1">
          <mxGeometry x="695" y="470" width="120" height="60" as="geometry" />
        </mxCell>
        <mxCell id="yi2jWMJPNJtkqTyVK9UL-31" value="" style="edgeStyle=orthogonalEdgeStyle;rounded=0;orthogonalLoop=1;jettySize=auto;html=1;endArrow=none;" edge="1" parent="WIyWlLk6GJQsqaUBKTNV-1" source="yi2jWMJPNJtkqTyVK9UL-23" target="yi2jWMJPNJtkqTyVK9UL-26">
          <mxGeometry relative="1" as="geometry">
            <mxPoint x="630" y="500" as="sourcePoint" />
            <mxPoint x="780" y="600" as="targetPoint" />
          </mxGeometry>
        </mxCell>
        <mxCell id="yi2jWMJPNJtkqTyVK9UL-33" value="否" style="text;html=1;align=center;verticalAlign=middle;resizable=0;points=[];autosize=1;strokeColor=none;fillColor=none;" vertex="1" parent="WIyWlLk6GJQsqaUBKTNV-1">
          <mxGeometry x="535" y="570" width="30" height="20" as="geometry" />
        </mxCell>
      </root>
    </mxGraphModel>
  </diagram>
</mxfile>
